<svg width="120" height="40" viewBox="0 0 120 40" fill="none" xmlns="http://www.w3.org/2000/svg">
  <path d="M20 0C8.954 0 0 8.954 0 20C0 31.046 8.954 40 20 40C31.046 40 40 31.046 40 20C40 8.954 31.046 0 20 0ZM20 36C11.163 36 4 28.837 4 20C4 11.163 11.163 4 20 4C28.837 4 36 11.163 36 20C36 28.837 28.837 36 20 36Z" fill="currentColor"/>
  <path d="M20 8C13.373 8 8 13.373 8 20C8 26.627 13.373 32 20 32C26.627 32 32 26.627 32 20C32 13.373 26.627 8 20 8ZM20 28C15.582 28 12 24.418 12 20C12 15.582 15.582 12 20 12C24.418 12 28 15.582 28 20C28 24.418 24.418 28 20 28Z" fill="currentColor"/>
  <path d="M20 16C17.791 16 16 17.791 16 20C16 22.209 17.791 24 20 24C22.209 24 24 22.209 24 20C24 17.791 22.209 16 20 16Z" fill="currentColor"/>
  <path d="M52.336 28V12.8H56.624C58.176 12.8 59.504 13.104 60.608 13.712C61.712 14.32 62.56 15.184 63.152 16.304C63.744 17.408 64.04 18.704 64.04 20.192V20.608C64.04 22.096 63.744 23.392 63.152 24.496C62.56 25.6 61.712 26.456 60.608 27.064C59.504 27.688 58.176 28 56.624 28H52.336ZM55.336 15.4V25.4H56.624C57.92 25.4 58.92 25 59.624 24.2C60.328 23.4 60.68 22.224 60.68 20.672V20.128C60.68 18.576 60.328 17.4 59.624 16.6C58.92 15.8 57.92 15.4 56.624 15.4H55.336Z" fill="currentColor"/>
  <path d="M71.4697 28.24C70.2377 28.24 69.1577 27.968 68.2297 27.424C67.3177 26.88 66.6057 26.12 66.0937 25.144C65.5817 24.152 65.3257 23.016 65.3257 21.736V21.256C65.3257 19.976 65.5817 18.848 66.0937 17.872C66.6057 16.88 67.3177 16.12 68.2297 15.592C69.1577 15.048 70.2377 14.776 71.4697 14.776C72.7017 14.776 73.7737 15.048 74.6857 15.592C75.6137 16.12 76.3257 16.88 76.8217 17.872C77.3337 18.848 77.5897 19.976 77.5897 21.256V21.736C77.5897 23.016 77.3337 24.152 76.8217 25.144C76.3257 26.12 75.6137 26.88 74.6857 27.424C73.7737 27.968 72.7017 28.24 71.4697 28.24ZM71.4697 25.64C72.3017 25.64 72.9577 25.336 73.4377 24.728C73.9177 24.12 74.1577 23.192 74.1577 21.944V21.048C74.1577 19.8 73.9177 18.872 73.4377 18.264C72.9577 17.656 72.3017 17.352 71.4697 17.352C70.6377 17.352 69.9817 17.656 69.5017 18.264C69.0217 18.872 68.7817 19.8 68.7817 21.048V21.944C68.7817 23.192 69.0217 24.12 69.5017 24.728C69.9817 25.336 70.6377 25.64 71.4697 25.64Z" fill="currentColor"/>
  <path d="M80.0977 28V15.016H83.3177V17.304H83.4577C83.6297 16.536 83.9657 15.952 84.4657 15.552C84.9657 15.136 85.5737 14.928 86.2897 14.928C86.4777 14.928 86.6737 14.944 86.8777 14.976C87.0817 15.008 87.2617 15.048 87.4177 15.096V18.072C87.2457 18.008 87.0097 17.952 86.7097 17.904C86.4097 17.856 86.1337 17.832 85.8817 17.832C85.3537 17.832 84.8857 17.944 84.4777 18.168C84.0697 18.376 83.7497 18.68 83.5177 19.08C83.2857 19.48 83.1697 19.944 83.1697 20.472V28H80.0977Z" fill="currentColor"/>
  <path d="M94.7855 28.24C93.5535 28.24 92.4735 27.968 91.5455 27.424C90.6335 26.88 89.9215 26.12 89.4095 25.144C88.8975 24.152 88.6415 23.016 88.6415 21.736V21.256C88.6415 19.976 88.8975 18.848 89.4095 17.872C89.9215 16.88 90.6335 16.12 91.5455 15.592C92.4735 15.048 93.5535 14.776 94.7855 14.776C96.0175 14.776 97.0895 15.048 98.0015 15.592C98.9295 16.12 99.6415 16.88 100.138 17.872C100.65 18.848 100.906 19.976 100.906 21.256V21.736C100.906 23.016 100.65 24.152 100.138 25.144C99.6415 26.12 98.9295 26.88 98.0015 27.424C97.0895 27.968 96.0175 28.24 94.7855 28.24ZM94.7855 25.64C95.6175 25.64 96.2735 25.336 96.7535 24.728C97.2335 24.12 97.4735 23.192 97.4735 21.944V21.048C97.4735 19.8 97.2335 18.872 96.7535 18.264C96.2735 17.656 95.6175 17.352 94.7855 17.352C93.9535 17.352 93.2975 17.656 92.8175 18.264C92.3375 18.872 92.0975 19.8 92.0975 21.048V21.944C92.0975 23.192 92.3375 24.12 92.8175 24.728C93.2975 25.336 93.9535 25.64 94.7855 25.64Z" fill="currentColor"/>
  <path d="M103.414 28V15.016H106.486V28H103.414ZM104.95 13.28C104.358 13.28 103.862 13.096 103.462 12.728C103.078 12.344 102.886 11.88 102.886 11.336C102.886 10.792 103.078 10.336 103.462 9.968C103.862 9.584 104.358 9.392 104.95 9.392C105.542 9.392 106.03 9.584 106.414 9.968C106.814 10.336 107.014 10.792 107.014 11.336C107.014 11.88 106.814 12.344 106.414 12.728C106.03 13.096 105.542 13.28 104.95 13.28Z" fill="currentColor"/>
  <path d="M109.336 28V15.016H112.408V28H109.336ZM110.872 13.28C110.28 13.28 109.784 13.096 109.384 12.728C109 12.344 108.808 11.88 108.808 11.336C108.808 10.792 109 10.336 109.384 9.968C109.784 9.584 110.28 9.392 110.872 9.392C111.464 9.392 111.952 9.584 112.336 9.968C112.736 10.336 112.936 10.792 112.936 11.336C112.936 11.88 112.736 12.344 112.336 12.728C111.952 13.096 111.464 13.28 110.872 13.28Z" fill="currentColor"/>
</svg>
