<svg width="40" height="40" viewBox="0 0 40 40" fill="none" xmlns="http://www.w3.org/2000/svg">
  <!-- Mercedes-like logo -->
  <path d="M28,5.333H12C8.319,5.333,5.333,8.319,5.333,12v16c0,3.681,2.985,6.667,6.667,6.667h16c3.681,0,6.667-2.985,6.667-6.667V12C34.667,8.319,31.681,5.333,28,5.333z M30.22,29.368c0,0-0.984-1.927-2.944-1.927C25.387,27.441,23.804,29.333,20,29.333c-7.483,0-11.767-7.083-11.767-7.083s7.503,5.213,12.523,1.395C15.6,20.007,10.319,12.391,10.319,12.391s4.579,4.035,9.021,6.8c-1.972-2.017-6.211-7.843-6.211-7.843s6.188,6.143,10.767,8.727c1.995-5.236-1.881-10.472-1.881-10.472c9.248,6.211,6.573,13.804,6.573,13.804S31.127,26.127,30.22,29.368z" fill="currentColor"/>
</svg>
